<?xml version="1.0" encoding="utf-8"?>
<!DOCTYPE svg PUBLIC "-//W3C//DTD SVG 1.1//EN" "http://www.w3.org/Graphics/SVG/1.1/DTD/svg11.dtd">
<svg version="1.1" id="Layer_1" xmlns="http://www.w3.org/2000/svg" xmlns:xlink="http://www.w3.org/1999/xlink" x="0px" y="0px"
	 viewBox="137.0506 317.7981 1645.9495 1284.4164" enable-background="new 137.0506 317.7981 1645.9495 1284.4164"
	 xml:space="preserve">
<g>
	<path fill="#54777B" stroke="#54777B" stroke-width="0.0938" d="M774.67,383.66c17.66-23.66,46.8-38.2,76.33-38.05
		c71.67-0.04,143.34-0.03,215.01-0.01c12.5599-0.29,25.25,1.73,36.97,6.35c28.8201,10.62,51.51,36.18,58.85,65.99
		c3.9401,14,2.8201,28.64,2.9701,43c0.01,51.15,0,102.3,0.01,153.45c157.72,0.01,315.45,0,473.1799,0
		c9.03,0.08,18.13-0.39,27.1,1.01c17.77,2.63,34.8401,10.2599,48.4501,22.03c15.1899,12.87,26.1799,30.62,30.87,49.98
		c2.2799,8.98,3,18.3,2.7899,27.55c0.04,81.71-0.0599,163.41,0.04,245.12c-133.08-0.23-266.16,0.01-399.25-0.12
		c-9.54,0.2599-19.09-0.35-28.6,0.33c-32.53-67.06-84.55-124.43-147.79-163.81c-72.2999-45.52-159.58-66.38-244.65-59.14
		c-48.41,3.91-96.1,16.7599-139.86,37.83C706.34,813.8,639.16,880.32,600.29,960.99c-1.21-1.05-2.8-0.88-4.2599-0.87
		c-141.08,0.01-282.17-0.11-423.2401,0.06c0.03-82.39,0-164.78,0.01-247.17c-0.47-19.01,4.72-38.17,15.03-54.18
		c13.66-21.66,36.36-37.32,61.46-42.43c11.7-2.66,23.76-1.9,35.66-2.01c9.54-0.01,19.09,0.02,28.63,0
		c55.4,0.04,110.79,0.03,166.18,0.01c91.81-0.01,183.62,0,275.43-0.01c0.02-57.8-0.01-115.59,0.02-173.39
		C755.26,420.45,762.21,400.01,774.67,383.66 M878.19,410.2c-16.37,2.09-31.63,11.33-41.18,24.78
		c-7.71,10.66-11.78,23.89-11.41,37.03c0.41,17.06,8.4301,33.81,21.51,44.78c10.51,8.97,24.1,14.04,37.89,14.42
		c51.33,0.0099,102.67-0.02,154,0.0099c9.08-0.0699,18.22-1.74,26.47-5.62c15.54-7.14,27.8301-21.15,32.6901-37.57
		c3.2799-10.61,3.47-22.14,0.6799-32.89c-3.6899-14.73-13.34-27.71-26.0399-35.93c-10.04-6.39-21.9601-9.78-33.8601-9.61
		c-49.2999,0-98.5999,0-147.9,0C886.75,409.65,882.43,409.42,878.19,410.2z"/>
	<path fill="#EDEBEC" stroke="#EDEBEC" stroke-width="0.0938" d="M878.19,410.2c4.24-0.78,8.56-0.55,12.85-0.6
		c49.3,0,98.6,0,147.9,0c11.9-0.17,23.8201,3.22,33.8601,9.61c12.7,8.22,22.35,21.2,26.0399,35.93
		c2.79,10.75,2.6,22.28-0.6799,32.89c-4.86,16.42-17.15,30.43-32.6901,37.57c-8.25,3.88-17.39,5.55-26.47,5.62
		c-51.33-0.03-102.67,0-154-0.0099c-13.79-0.38-27.38-5.45-37.89-14.42c-13.08-10.97-21.1-27.72-21.51-44.78
		c-0.37-13.14,3.7-26.37,11.41-37.03C846.56,421.53,861.82,412.29,878.19,410.2z"/>
	<path fill="#383838" stroke="#383838" stroke-width="0.0938" d="M364.8,505.6c21.28-0.08,42.57,0.18,63.84-0.13
		c0.41,12.82,0.01,25.66,0.21,38.49c-21.35,0.06-42.7,0.09-64.05-0.02C364.79,531.16,364.79,518.38,364.8,505.6z"/>
	<path fill="#EBD077" stroke="#EBD077" stroke-width="0.0938" d="M313.56,544.29c8.12-1.1,16.3,0.26,24.44-0.36
		c8.93-0.27,17.86,0.13,26.8,0.01c21.35,0.11,42.7,0.08,64.05,0.02c16.98,0.09,33.96-0.18,50.95-0.02
		c0.76,9.98,0.12,20.02,0.35,30.03c-0.59,13.46,0.66,26.98-0.39,40.4301c-55.39,0.02-110.78,0.03-166.18-0.01
		C313.57,591.02,313.62,567.66,313.56,544.29z"/>
	<path fill="#375152" stroke="#375152" stroke-width="0.0938" d="M926.95,737.34c85.07-7.2401,172.35,13.62,244.65,59.14
		c63.24,39.38,115.26,96.75,147.79,163.81c40.48,81.82,50.97,177.7501,30.24,266.57c-9.47,41.34-26.04,80.89-47.78,117.27
		c140.0601,0.2,280.12,0.02,420.1801,0.09c8.28,0.12,16.6-0.2899,24.87,0.2101l0.52,0.2c-51.8,0.4301-103.62,0.02-155.4301,0.1899
		c-96.7-0.08-193.41,0.1001-290.1-0.11c-2.24,1.89-3.4,4.7101-5.03,7.0901c-40.75,63.7799-100.0499,115.5399-168.75,147.2899
		c-77.0499,35.98-165.76,45.9501-248.99,28.74c-74.03-15-143.35-51.88-197.44-104.5399c-24.58-23.5901-45.81-50.55-63.69-79.51
		c-0.81-1.28-1.54-2.6-2.26-3.89c-20.56-34.9-36-72.83-45.2-112.29C550.29,1141.53,559.31,1048.73,596.69,968.53
		c0.54-1.17,1.05-2.35,1.5-3.54c0.47-1.45,1.17-2.8,2.1-4c38.87-80.67,106.05-147.19,186.8-185.82
		C830.85,754.1,878.54,741.25,926.95,737.34 M944.25,776.36c-26.76,1.14-53.35,5.37-79.21,12.3
		c-44.99,12.32-87.48,33.53-124.45,61.95c-33.09,25.43-61.6801,56.66-84.15,91.83c-22.75,35.56-39.14,75.18-48.15,116.43
		c-9.97,45.89-10.86,93.75-2.79,140.01c13.65,78.92,55,152.59,114.88,205.71c64.32,57.74,150.1,91.29,236.64,91.2201
		c64.25,1.0099,128.58-16.2101,184-48.67c68.38-39.55,122.96-102.39,152.5599-175.64c34.9701-85.29,35.16-184.17,0.5601-269.61
		c-15.2001-37.97-37.02-73.26-64.1-103.91c-53.92-61.4-129.3401-103.74-210.0601-116.9C995.02,776.55,969.56,775.6,944.25,776.36z"
		/>
	<path fill="#FFFFFF" stroke="#FFFFFF" stroke-width="0.0938" d="M944.25,776.36c25.31-0.76,50.77,0.19,75.73,4.72
		c80.72,13.16,156.14,55.5,210.0601,116.9c27.08,30.65,48.8999,65.94,64.1,103.91c34.6,85.4399,34.41,184.3199-0.5601,269.61
		c-29.6,73.25-84.1799,136.09-152.5599,175.64c-55.42,32.46-119.75,49.6799-184,48.67c-86.54,0.0699-172.32-33.4801-236.64-91.2201
		C660.5,1351.47,619.15,1277.8,605.5,1198.88c-8.07-46.26-7.18-94.12,2.79-140.01c9.01-41.25,25.4-80.87,48.15-116.43
		c22.47-35.17,51.06-66.4,84.15-91.83c36.97-28.42,79.46-49.63,124.45-61.95C890.9,781.73,917.49,777.5,944.25,776.36
		 M946.18,794.28c-49.64,2.03-98.93,14.7599-143,37.81c-71.86,36.87-129.78,100.06-160,174.98
		c-34.82,84.65-33.41,183.3799,3.85,266.98c14.89,33.86,35.45,65.21,60.4,92.5199c54.32,59.7101,130.38,99.4801,210.67,108.78
		c42.27,5.35,85.52,2.47,126.8201-7.99c42.34-10.74,82.4199-29.97,117.62-55.78c63.74-46.64,110.48-116.01,129.34-192.75
		c11.26-44.9299,12.95-92.1499,5.72-137.87c-7.23-44.62-23.4399-87.78-47.46-126.08c-39.51-63.5-100.46-113.27-170.54-139.36
		C1037.14,799.59,991.44,792.52,946.18,794.28z"/>
	<path fill="#595959" stroke="#595959" stroke-width="0.0938" d="M946.18,794.28c45.26-1.76,90.96,5.31,133.42,21.24
		c70.0801,26.09,131.03,75.86,170.54,139.36c24.02,38.3,40.23,81.46,47.46,126.08c7.23,45.7201,5.54,92.9401-5.72,137.87
		c-18.86,76.74-65.6,146.11-129.34,192.75c-35.2001,25.8101-75.28,45.04-117.62,55.78c-41.3,10.46-84.55,13.34-126.8201,7.99
		c-80.29-9.2999-156.35-49.0699-210.67-108.78c-24.95-27.3099-45.51-58.6599-60.4-92.5199
		c-37.26-83.6001-38.67-182.3301-3.85-266.98c30.22-74.92,88.14-138.11,160-174.98C847.25,809.04,896.54,796.31,946.18,794.28
		 M837.7,838.63c-70.35,28.79-129.66,83.48-164.08,151.24c-20.33,39.66-32.19,83.63-34.56,128.14c-2.6,45.15,4.49,90.86,20.7,133.09
		c14.44,37.47,35.81,72.41,63.2,101.79c-17.47-25.3201-32.2-52.65-42.33-81.74c-15.84-44.7101-21.51-92.97-16.45-140.13
		c4.47-42.25,17.55-83.55,38.02-120.77c16.73-30.62,38.29-58.53,63.34-82.79c60.36-58.51,140.7-95.18,223.97-105.17
		c9.2-1.45,18.54-1.5,27.73-2.89c-11.05-1.53-22.08-3.26-33.23-3.95C934.33,811.66,883.77,819.63,837.7,838.63 M944.47,1034.6
		c-17.95,2.6801-35.06,10.38-49.17,21.77c-14.45,11.74-25.61,27.46-31.86,45c-7.61,20.9301-8.01,44.33-1.27,65.55
		c4.85,15.13,13.1,29.26,24.3,40.58c12.61,13.17,28.96,22.64,46.51,27.48c24.76,6.8,52.08,3.91,74.76-8.2
		c32.02-16.4,53.71-50.8301,54.77-86.78c0.73-17.89-3.33-35.99-11.77-51.79c-9.61-18.5399-25.1799-33.88-43.76-43.37
		C987.95,1034.89,965.68,1031.3,944.47,1034.6z"/>
	<path fill="#ACACAC" stroke="#ACACAC" stroke-width="0.0938" d="M837.7,838.63c46.07-19,96.63-26.97,146.31-23.18
		c11.15,0.69,22.18,2.42,33.23,3.95c-9.19,1.39-18.53,1.44-27.73,2.89c-83.27,9.9901-163.61,46.66-223.97,105.17
		c-25.05,24.2599-46.61,52.17-63.34,82.79c-20.47,37.22-33.55,78.52-38.02,120.77c-5.06,47.16,0.61,95.4199,16.45,140.13
		c10.13,29.09,24.86,56.4199,42.33,81.74c-27.39-29.38-48.76-64.3201-63.2-101.79c-16.21-42.23-23.3-87.9399-20.7-133.09
		c2.37-44.51,14.23-88.48,34.56-128.14C708.04,922.11,767.35,867.42,837.7,838.63z"/>
	<path fill="#EBD077" stroke="#EBD077" stroke-width="0.0938" d="M1319.39,960.29c9.51-0.68,19.0599-0.07,28.6-0.33
		c133.09,0.13,266.17-0.11,399.25,0.12c0.24,123.95,0.04,247.91,0.11,371.8599c-0.2,4.15,0.4501,8.38-0.45,12.4901
		c-8.27-0.5-16.59-0.0901-24.87-0.2101c-140.0601-0.0699-280.12,0.11-420.1801-0.09c21.74-36.38,38.3101-75.9301,47.78-117.27
		C1370.36,1138.04,1359.87,1042.11,1319.39,960.29z"/>
	<path fill="#EBD077" stroke="#EBD077" stroke-width="0.0938" d="M172.67,960.61c13.76-0.74,27.58-0.12,41.36-0.32
		c124.65-0.0099,249.3,0,373.95-0.0099c3.22,0.08,6.7-0.4301,9.71,1.04c0.64,1.14,0.81,2.37,0.5,3.67c-0.45,1.19-0.96,2.37-1.5,3.54
		c-37.38,80.2-46.4,173-26.16,259.0699c9.2,39.4601,24.64,77.39,45.2,112.29c0.63,1.17,1.06,2.34,1.61,3.62
		c-27.1201,0.48-54.26,0.0699-81.39,0.2c-116.34,0-232.68,0-349.02,0c-4.77-0.0299-9.54,0.14-14.3-0.2
		C172.68,1215.88,172.59,1088.24,172.67,960.61z"/>
	<path fill="#ACACAC" stroke="#ACACAC" stroke-width="0.0938" d="M944.47,1034.6c21.21-3.2999,43.48,0.29,62.51,10.24
		c18.5801,9.49,34.15,24.8301,43.76,43.37c8.4401,15.8,12.5,33.9,11.77,51.79c-1.0601,35.95-22.75,70.38-54.77,86.78
		c-22.68,12.11-50,15-74.76,8.2c-17.55-4.84-33.9-14.3099-46.51-27.48c-11.2-11.3199-19.45-25.45-24.3-40.58
		c-6.74-21.2201-6.34-44.62,1.27-65.55c6.25-17.54,17.41-33.26,31.86-45C909.41,1044.98,926.52,1037.28,944.47,1034.6z"/>
	<path fill="#54777B" stroke="#54777B" stroke-width="0.0938" d="M172.79,1343.86c117.06,0.09,234.12,0.01,351.18,0.04
		c31.34-0.0801,62.6801,0.15,94.02-0.12c17.88,28.96,39.11,55.9199,63.69,79.51c54.09,52.6599,123.41,89.5399,197.44,104.5399
		c83.23,17.2101,171.9401,7.24,248.99-28.74c68.7001-31.75,128-83.51,168.75-147.2899c1.63-2.38,2.79-5.2001,5.03-7.0901
		c96.6899,0.2101,193.4,0.03,290.1,0.11c51.8101-0.1699,103.63,0.2401,155.4301-0.1899c-0.51,43.46-0.0701,86.96-0.2201,130.4301
		c0.49,17.6599-3.71,35.49-12.5499,50.8199c-16.4,29.27-49,48.62-82.61,48.51c-455.3501,0.0499-910.6901,0.01-1366.03,0.02
		c-10.31-0.2001-20.7,0.6-30.94-0.98c-19.93-2.8301-38.89-12.15-53.22-26.29c-19.35-18.51-30.02-45.4501-29.04-72.16
		C172.79,1431.27,172.81,1387.5601,172.79,1343.86 M1514.26,1427.33c-11.8201,0.78-22.7,8.8201-27.08,19.8
		c-3.3101,7.51-2.17,15.88-2.4,23.85c-0.17,8.02,2.6,16.17,8.0399,22.14c5.9301,6.9401,15.03,10.91,24.14,10.86
		c38.3501,0,76.7001,0.01,115.0601-0.01c12.35,0.2001,24.24-7.63,29.1899-18.9099c3.86-7.79,2.54-16.66,2.78-25.02
		c0.26-7.8101-2.61-15.5901-7.61-21.53c-6.17-7.35-15.76-11.59-25.34-11.3C1592.11,1427.28,1553.1801,1427.04,1514.26,1427.33
		 M285.36,1446.53c-12.06,0.84-23.09,9.23-27.29,20.5399c-2.96,7.28-1.84,15.26-2.06,22.91c-0.37,9.4501,3.65,18.99,10.85,25.17
		c5.69,5.24,13.42,7.9299,21.11,8.0599c32.03-0.02,64.06-0.01,96.09,0c7.69-0.13,15.44-2.8099,21.11-8.1
		c7.2-6.16,11.18-15.71,10.82-25.14c-0.26-6.98,0.79-14.1699-1.39-20.9299c-2.89-9.54-10.47-17.51-19.89-20.76
		c-6.59-2.5901-13.76-1.73-20.66-1.87C344.49,1446.49,314.92,1446.25,285.36,1446.53z"/>
	<path fill="#FFFFFF" stroke="#FFFFFF" stroke-width="0.0938" d="M1514.26,1427.33c38.92-0.2899,77.85-0.0499,116.78-0.12
		c9.58-0.2899,19.1699,3.9501,25.34,11.3c5,5.9399,7.87,13.72,7.61,21.53c-0.24,8.36,1.08,17.23-2.78,25.02
		c-4.95,11.2799-16.84,19.11-29.1899,18.9099c-38.36,0.02-76.71,0.01-115.0601,0.01c-9.11,0.05-18.21-3.9199-24.14-10.86
		c-5.4399-5.97-8.21-14.12-8.0399-22.14c0.23-7.97-0.91-16.34,2.4-23.85C1491.5601,1436.15,1502.4399,1428.11,1514.26,1427.33z"/>
	<path fill="#FFFFFF" stroke="#FFFFFF" stroke-width="0.0938" d="M285.36,1446.53c29.56-0.28,59.13-0.04,88.69-0.12
		c6.9,0.14,14.07-0.7201,20.66,1.87c9.42,3.25,17,11.22,19.89,20.76c2.18,6.76,1.13,13.95,1.39,20.9299
		c0.36,9.4301-3.62,18.98-10.82,25.14c-5.67,5.29-13.42,7.97-21.11,8.1c-32.03-0.01-64.06-0.02-96.09,0
		c-7.69-0.13-15.42-2.8199-21.11-8.0599c-7.2-6.1801-11.22-15.72-10.85-25.17c0.22-7.65-0.9-15.63,2.06-22.91
		C262.27,1455.76,273.3,1447.37,285.36,1446.53z"/>
</g>
</svg>
